<svg width="23" height="28" viewBox="0 0 23 28" fill="none" xmlns="http://www.w3.org/2000/svg">
<path d="M17.4588 0.820419C18.2127 0.818641 18.9231 0.991832 19.5899 1.33999C20.2567 1.68815 20.8404 2.16369 21.341 2.76659C21.8416 3.36949 22.2372 4.07333 22.5277 4.87809C22.8182 5.68285 22.9642 6.54094 22.9656 7.45236L22.9859 20.7422C22.9873 21.6536 22.844 22.5177 22.556 23.3344C22.2679 24.1511 21.8745 24.8621 21.3758 25.4674C20.877 26.0726 20.2948 26.5509 19.6291 26.9022C18.9633 27.2535 18.2535 27.4301 17.4996 27.4318L6.48021 27.4578C5.72629 27.4596 5.01594 27.2864 4.34916 26.9383C3.68237 26.5901 3.09868 26.1146 2.59806 25.5117C2.09745 24.9088 1.70187 24.1996 1.41133 23.3843C1.12079 22.5689 0.974818 21.7055 0.973422 20.7941L0.953055 7.50428C0.951658 6.59286 1.09499 5.73409 1.38305 4.92796C1.6711 4.12183 2.06451 3.41614 2.56327 2.81088C3.06204 2.20562 3.64427 1.72734 4.30998 1.37603C4.9757 1.02473 5.68551 0.848189 6.43942 0.84641L17.4588 0.820419ZM8.53237 10.8248L5.77094 10.8313L5.78751 21.6412L8.54893 21.6347L8.53237 10.8248ZM7.16349 9.96956C7.53168 9.96869 7.85141 9.80897 8.12268 9.49039C8.39395 9.17181 8.52923 8.77937 8.52852 8.31306C8.5278 7.84675 8.39132 7.45495 8.11908 7.13765C7.84683 6.82035 7.52661 6.66214 7.15842 6.663C6.7727 6.66391 6.4442 6.82366 6.17293 7.14224C5.90166 7.46082 5.76638 7.85326 5.76709 8.31957C5.76781 8.78588 5.90429 9.17768 6.17653 9.49498C6.44878 9.81228 6.77777 9.97047 7.16349 9.96956ZM18.1649 15.3486C18.1637 14.5855 17.9872 13.8388 17.6355 13.1084C17.2837 12.3779 16.827 11.8226 16.2653 11.4424C15.7564 11.1045 15.1644 10.9257 14.4893 10.9061C13.8143 10.8865 13.2052 11.0257 12.6621 11.3237L12.6614 10.815L9.89993 10.8215L9.9165 21.6314L12.6779 21.6249L12.6678 15.0118L13.7976 14.3415C13.9378 14.2564 14.1306 14.2135 14.376 14.2129C14.6215 14.2124 14.8057 14.2649 14.9286 14.3706C15.0338 14.4339 15.1393 14.5715 15.2448 14.7832C15.3503 14.9949 15.4032 15.1855 15.4035 15.3551L15.4131 21.6185L18.1745 21.612L18.1649 15.3486Z" fill="white"/>
</svg>
